<svg xmlns="http://www.w3.org/2000/svg" version="1.1" xmlns:xlink="http://www.w3.org/1999/xlink" xmlns:svgjs="http://svgjs.dev/svgjs" width="1440" height="560" preserveAspectRatio="none" viewBox="0 0 1440 560">
    <g mask="url(&quot;#SvgjsMask1038&quot;)" fill="none">
        <rect width="1440" height="560" x="0" y="0" fill="rgba(31, 31, 34, 1)"></rect>
        <path d="M93.16 59.53L158.12 97.03L158.12 172.03L93.16 209.53L28.21 172.03L28.21 97.03zM28.21 172.03L93.16 209.53L93.16 284.53L28.21 322.03L-36.74 284.53L-36.74 209.53zM93.16 509.53L158.12 547.03L158.12 622.03L93.16 659.53L28.21 622.03L28.21 547.03zM223.07 509.53L288.02 547.03L288.02 622.03L223.07 659.53L158.12 622.03L158.12 547.03zM288.02 172.03L352.98 209.53L352.98 284.53L288.02 322.03L223.07 284.53L223.07 209.53zM288.02 397.03L352.98 434.53L352.98 509.53L288.02 547.03L223.07 509.53L223.07 434.53zM417.93 -52.97L482.89 -15.47L482.89 59.53L417.93 97.03L352.98 59.53L352.98 -15.47zM612.79 284.53L677.75 322.03L677.75 397.03L612.79 434.53L547.84 397.03L547.84 322.03zM677.75 -52.97L742.7 -15.47L742.7 59.53L677.75 97.03L612.79 59.53L612.79 -15.47zM742.7 59.53L807.66 97.03L807.66 172.03L742.7 209.53L677.75 172.03L677.75 97.03zM742.7 284.53L807.66 322.03L807.66 397.03L742.7 434.53L677.75 397.03L677.75 322.03zM677.75 397.03L742.7 434.53L742.7 509.53L677.75 547.03L612.79 509.53L612.79 434.53zM742.7 509.53L807.66 547.03L807.66 622.03L742.7 659.53L677.75 622.03L677.75 547.03zM807.65 -52.97L872.61 -15.47L872.61 59.53L807.65 97.03L742.7 59.53L742.7 -15.47zM872.61 284.53L937.56 322.03L937.56 397.03L872.61 434.53L807.65 397.03L807.65 322.03zM1002.52 59.53L1067.47 97.03L1067.47 172.03L1002.52 209.53L937.56 172.03L937.56 97.03zM1132.42 59.53L1197.38 97.03L1197.38 172.03L1132.42 209.53L1067.47 172.03L1067.47 97.03zM1067.47 172.03L1132.42 209.53L1132.42 284.53L1067.47 322.03L1002.52 284.53L1002.52 209.53zM1262.33 59.53L1327.28 97.03L1327.28 172.03L1262.33 209.53L1197.38 172.03L1197.38 97.03zM1262.33 509.53L1327.28 547.03L1327.28 622.03L1262.33 659.53L1197.38 622.03L1197.38 547.03zM1522.15 284.53L1587.1 322.03L1587.1 397.03L1522.15 434.53L1457.19 397.03L1457.19 322.03zM1522.15 509.53L1587.1 547.03L1587.1 622.03L1522.15 659.53L1457.19 622.03L1457.19 547.03z" stroke="rgba(0, 0, 0, 0)" stroke-width="2"></path>
        <path d="M85.66 59.53 a7.5 7.5 0 1 0 15 0 a7.5 7.5 0 1 0 -15 0zM150.62 97.03 a7.5 7.5 0 1 0 15 0 a7.5 7.5 0 1 0 -15 0zM150.62 172.03 a7.5 7.5 0 1 0 15 0 a7.5 7.5 0 1 0 -15 0zM85.66 209.53 a7.5 7.5 0 1 0 15 0 a7.5 7.5 0 1 0 -15 0zM20.71 172.03 a7.5 7.5 0 1 0 15 0 a7.5 7.5 0 1 0 -15 0zM20.71 97.03 a7.5 7.5 0 1 0 15 0 a7.5 7.5 0 1 0 -15 0zM85.66 284.53 a7.5 7.5 0 1 0 15 0 a7.5 7.5 0 1 0 -15 0zM20.71 322.03 a7.5 7.5 0 1 0 15 0 a7.5 7.5 0 1 0 -15 0zM-44.24 284.53 a7.5 7.5 0 1 0 15 0 a7.5 7.5 0 1 0 -15 0zM-44.24 209.53 a7.5 7.5 0 1 0 15 0 a7.5 7.5 0 1 0 -15 0zM85.66 509.53 a7.5 7.5 0 1 0 15 0 a7.5 7.5 0 1 0 -15 0zM150.62 547.03 a7.5 7.5 0 1 0 15 0 a7.5 7.5 0 1 0 -15 0zM150.62 622.03 a7.5 7.5 0 1 0 15 0 a7.5 7.5 0 1 0 -15 0zM85.66 659.53 a7.5 7.5 0 1 0 15 0 a7.5 7.5 0 1 0 -15 0zM20.71 622.03 a7.5 7.5 0 1 0 15 0 a7.5 7.5 0 1 0 -15 0zM20.71 547.03 a7.5 7.5 0 1 0 15 0 a7.5 7.5 0 1 0 -15 0zM215.57 509.53 a7.5 7.5 0 1 0 15 0 a7.5 7.5 0 1 0 -15 0zM280.52 547.03 a7.5 7.5 0 1 0 15 0 a7.5 7.5 0 1 0 -15 0zM280.52 622.03 a7.5 7.5 0 1 0 15 0 a7.5 7.5 0 1 0 -15 0zM215.57 659.53 a7.5 7.5 0 1 0 15 0 a7.5 7.5 0 1 0 -15 0zM280.52 172.03 a7.5 7.5 0 1 0 15 0 a7.5 7.5 0 1 0 -15 0zM345.48 209.53 a7.5 7.5 0 1 0 15 0 a7.5 7.5 0 1 0 -15 0zM345.48 284.53 a7.5 7.5 0 1 0 15 0 a7.5 7.5 0 1 0 -15 0zM280.52 322.03 a7.5 7.5 0 1 0 15 0 a7.5 7.5 0 1 0 -15 0zM215.57 284.53 a7.5 7.5 0 1 0 15 0 a7.5 7.5 0 1 0 -15 0zM215.57 209.53 a7.5 7.5 0 1 0 15 0 a7.5 7.5 0 1 0 -15 0zM280.52 397.03 a7.5 7.5 0 1 0 15 0 a7.5 7.5 0 1 0 -15 0zM345.48 434.53 a7.5 7.5 0 1 0 15 0 a7.5 7.5 0 1 0 -15 0zM345.48 509.53 a7.5 7.5 0 1 0 15 0 a7.5 7.5 0 1 0 -15 0zM215.57 434.53 a7.5 7.5 0 1 0 15 0 a7.5 7.5 0 1 0 -15 0zM410.43 -52.97 a7.5 7.5 0 1 0 15 0 a7.5 7.5 0 1 0 -15 0zM475.39 -15.47 a7.5 7.5 0 1 0 15 0 a7.5 7.5 0 1 0 -15 0zM475.39 59.53 a7.5 7.5 0 1 0 15 0 a7.5 7.5 0 1 0 -15 0zM410.43 97.03 a7.5 7.5 0 1 0 15 0 a7.5 7.5 0 1 0 -15 0zM345.48 59.53 a7.5 7.5 0 1 0 15 0 a7.5 7.5 0 1 0 -15 0zM345.48 -15.47 a7.5 7.5 0 1 0 15 0 a7.5 7.5 0 1 0 -15 0zM605.29 284.53 a7.5 7.5 0 1 0 15 0 a7.5 7.5 0 1 0 -15 0zM670.25 322.03 a7.5 7.5 0 1 0 15 0 a7.5 7.5 0 1 0 -15 0zM670.25 397.03 a7.5 7.5 0 1 0 15 0 a7.5 7.5 0 1 0 -15 0zM605.29 434.53 a7.5 7.5 0 1 0 15 0 a7.5 7.5 0 1 0 -15 0zM540.34 397.03 a7.5 7.5 0 1 0 15 0 a7.5 7.5 0 1 0 -15 0zM540.34 322.03 a7.5 7.5 0 1 0 15 0 a7.5 7.5 0 1 0 -15 0zM670.25 -52.97 a7.5 7.5 0 1 0 15 0 a7.5 7.5 0 1 0 -15 0zM735.2 -15.47 a7.5 7.5 0 1 0 15 0 a7.5 7.5 0 1 0 -15 0zM735.2 59.53 a7.5 7.5 0 1 0 15 0 a7.5 7.5 0 1 0 -15 0zM670.25 97.03 a7.5 7.5 0 1 0 15 0 a7.5 7.5 0 1 0 -15 0zM605.29 59.53 a7.5 7.5 0 1 0 15 0 a7.5 7.5 0 1 0 -15 0zM605.29 -15.47 a7.5 7.5 0 1 0 15 0 a7.5 7.5 0 1 0 -15 0zM800.16 97.03 a7.5 7.5 0 1 0 15 0 a7.5 7.5 0 1 0 -15 0zM800.16 172.03 a7.5 7.5 0 1 0 15 0 a7.5 7.5 0 1 0 -15 0zM735.2 209.53 a7.5 7.5 0 1 0 15 0 a7.5 7.5 0 1 0 -15 0zM670.25 172.03 a7.5 7.5 0 1 0 15 0 a7.5 7.5 0 1 0 -15 0zM735.2 284.53 a7.5 7.5 0 1 0 15 0 a7.5 7.5 0 1 0 -15 0zM800.16 322.03 a7.5 7.5 0 1 0 15 0 a7.5 7.5 0 1 0 -15 0zM800.16 397.03 a7.5 7.5 0 1 0 15 0 a7.5 7.5 0 1 0 -15 0zM735.2 434.53 a7.5 7.5 0 1 0 15 0 a7.5 7.5 0 1 0 -15 0zM735.2 509.53 a7.5 7.5 0 1 0 15 0 a7.5 7.5 0 1 0 -15 0zM670.25 547.03 a7.5 7.5 0 1 0 15 0 a7.5 7.5 0 1 0 -15 0zM605.29 509.53 a7.5 7.5 0 1 0 15 0 a7.5 7.5 0 1 0 -15 0zM800.16 547.03 a7.5 7.5 0 1 0 15 0 a7.5 7.5 0 1 0 -15 0zM800.16 622.03 a7.5 7.5 0 1 0 15 0 a7.5 7.5 0 1 0 -15 0zM735.2 659.53 a7.5 7.5 0 1 0 15 0 a7.5 7.5 0 1 0 -15 0zM670.25 622.03 a7.5 7.5 0 1 0 15 0 a7.5 7.5 0 1 0 -15 0zM800.15 -52.97 a7.5 7.5 0 1 0 15 0 a7.5 7.5 0 1 0 -15 0zM865.11 -15.47 a7.5 7.5 0 1 0 15 0 a7.5 7.5 0 1 0 -15 0zM865.11 59.53 a7.5 7.5 0 1 0 15 0 a7.5 7.5 0 1 0 -15 0zM800.15 97.03 a7.5 7.5 0 1 0 15 0 a7.5 7.5 0 1 0 -15 0zM865.11 284.53 a7.5 7.5 0 1 0 15 0 a7.5 7.5 0 1 0 -15 0zM930.06 322.03 a7.5 7.5 0 1 0 15 0 a7.5 7.5 0 1 0 -15 0zM930.06 397.03 a7.5 7.5 0 1 0 15 0 a7.5 7.5 0 1 0 -15 0zM865.11 434.53 a7.5 7.5 0 1 0 15 0 a7.5 7.5 0 1 0 -15 0zM800.15 397.03 a7.5 7.5 0 1 0 15 0 a7.5 7.5 0 1 0 -15 0zM800.15 322.03 a7.5 7.5 0 1 0 15 0 a7.5 7.5 0 1 0 -15 0zM995.02 59.53 a7.5 7.5 0 1 0 15 0 a7.5 7.5 0 1 0 -15 0zM1059.97 97.03 a7.5 7.5 0 1 0 15 0 a7.5 7.5 0 1 0 -15 0zM1059.97 172.03 a7.5 7.5 0 1 0 15 0 a7.5 7.5 0 1 0 -15 0zM995.02 209.53 a7.5 7.5 0 1 0 15 0 a7.5 7.5 0 1 0 -15 0zM930.06 172.03 a7.5 7.5 0 1 0 15 0 a7.5 7.5 0 1 0 -15 0zM930.06 97.03 a7.5 7.5 0 1 0 15 0 a7.5 7.5 0 1 0 -15 0zM1124.92 59.53 a7.5 7.5 0 1 0 15 0 a7.5 7.5 0 1 0 -15 0zM1189.88 97.03 a7.5 7.5 0 1 0 15 0 a7.5 7.5 0 1 0 -15 0zM1189.88 172.03 a7.5 7.5 0 1 0 15 0 a7.5 7.5 0 1 0 -15 0zM1124.92 209.53 a7.5 7.5 0 1 0 15 0 a7.5 7.5 0 1 0 -15 0zM1124.92 284.53 a7.5 7.5 0 1 0 15 0 a7.5 7.5 0 1 0 -15 0zM1059.97 322.03 a7.5 7.5 0 1 0 15 0 a7.5 7.5 0 1 0 -15 0zM995.02 284.53 a7.5 7.5 0 1 0 15 0 a7.5 7.5 0 1 0 -15 0zM1254.83 59.53 a7.5 7.5 0 1 0 15 0 a7.5 7.5 0 1 0 -15 0zM1319.78 97.03 a7.5 7.5 0 1 0 15 0 a7.5 7.5 0 1 0 -15 0zM1319.78 172.03 a7.5 7.5 0 1 0 15 0 a7.5 7.5 0 1 0 -15 0zM1254.83 209.53 a7.5 7.5 0 1 0 15 0 a7.5 7.5 0 1 0 -15 0zM1254.83 509.53 a7.5 7.5 0 1 0 15 0 a7.5 7.5 0 1 0 -15 0zM1319.78 547.03 a7.5 7.5 0 1 0 15 0 a7.5 7.5 0 1 0 -15 0zM1319.78 622.03 a7.5 7.5 0 1 0 15 0 a7.5 7.5 0 1 0 -15 0zM1254.83 659.53 a7.5 7.5 0 1 0 15 0 a7.5 7.5 0 1 0 -15 0zM1189.88 622.03 a7.5 7.5 0 1 0 15 0 a7.5 7.5 0 1 0 -15 0zM1189.88 547.03 a7.5 7.5 0 1 0 15 0 a7.5 7.5 0 1 0 -15 0zM1514.65 284.53 a7.5 7.5 0 1 0 15 0 a7.5 7.5 0 1 0 -15 0zM1579.6 322.03 a7.5 7.5 0 1 0 15 0 a7.5 7.5 0 1 0 -15 0zM1579.6 397.03 a7.5 7.5 0 1 0 15 0 a7.5 7.5 0 1 0 -15 0zM1514.65 434.53 a7.5 7.5 0 1 0 15 0 a7.5 7.5 0 1 0 -15 0zM1449.69 397.03 a7.5 7.5 0 1 0 15 0 a7.5 7.5 0 1 0 -15 0zM1449.69 322.03 a7.5 7.5 0 1 0 15 0 a7.5 7.5 0 1 0 -15 0zM1514.65 509.53 a7.5 7.5 0 1 0 15 0 a7.5 7.5 0 1 0 -15 0zM1579.6 547.03 a7.5 7.5 0 1 0 15 0 a7.5 7.5 0 1 0 -15 0zM1579.6 622.03 a7.5 7.5 0 1 0 15 0 a7.5 7.5 0 1 0 -15 0zM1514.65 659.53 a7.5 7.5 0 1 0 15 0 a7.5 7.5 0 1 0 -15 0zM1449.69 622.03 a7.5 7.5 0 1 0 15 0 a7.5 7.5 0 1 0 -15 0zM1449.69 547.03 a7.5 7.5 0 1 0 15 0 a7.5 7.5 0 1 0 -15 0z" fill="rgba(0, 0, 0, 0)"></path>
        <path d="M24.22 -49.96L83.98 -15.46L83.98 53.54L24.22 88.04L-35.54 53.54L-35.54 -15.46zM24.22 157.04L83.98 191.54L83.98 260.54L24.22 295.04L-35.54 260.54L-35.54 191.54zM83.98 467.54L143.73 502.04L143.73 571.04L83.98 605.54L24.22 571.04L24.22 502.04zM143.73 -49.96L203.49 -15.46L203.49 53.54L143.73 88.04L83.98 53.54L83.98 -15.46zM203.49 260.54L263.25 295.04L263.25 364.04L203.49 398.54L143.73 364.04L143.73 295.04zM143.73 364.04L203.49 398.54L203.49 467.54L143.73 502.04L83.98 467.54L83.98 398.54zM203.49 467.54L263.25 502.04L263.25 571.04L203.49 605.54L143.73 571.04L143.73 502.04zM263.25 -49.96L323.01 -15.46L323.01 53.54L263.25 88.04L203.49 53.54L203.49 -15.46zM263.25 157.04L323.01 191.54L323.01 260.54L263.25 295.04L203.49 260.54L203.49 191.54zM442.52 53.54L502.28 88.04L502.28 157.04L442.52 191.54L382.76 157.04L382.76 88.04zM382.76 364.04L442.52 398.54L442.52 467.54L382.76 502.04L323.01 467.54L323.01 398.54zM562.04 53.54L621.79 88.04L621.79 157.04L562.04 191.54L502.28 157.04L502.28 88.04zM502.28 157.04L562.04 191.54L562.04 260.54L502.28 295.04L442.52 260.54L442.52 191.54zM562.04 260.54L621.79 295.04L621.79 364.04L562.04 398.54L502.28 364.04L502.28 295.04zM502.28 364.04L562.04 398.54L562.04 467.54L502.28 502.04L442.52 467.54L442.52 398.54zM562.04 467.54L621.79 502.04L621.79 571.04L562.04 605.54L502.28 571.04L502.28 502.04zM681.55 53.54L741.31 88.04L741.31 157.04L681.55 191.54L621.79 157.04L621.79 88.04zM681.55 260.54L741.31 295.04L741.31 364.04L681.55 398.54L621.79 364.04L621.79 295.04zM741.31 -49.96L801.07 -15.46L801.07 53.54L741.31 88.04L681.55 53.54L681.55 -15.46zM801.07 260.54L860.82 295.04L860.82 364.04L801.07 398.54L741.31 364.04L741.31 295.04zM741.31 364.04L801.07 398.54L801.07 467.54L741.31 502.04L681.55 467.54L681.55 398.54zM920.58 467.54L980.34 502.04L980.34 571.04L920.58 605.54L860.82 571.04L860.82 502.04zM1040.1 260.54L1099.85 295.04L1099.85 364.04L1040.1 398.54L980.34 364.04L980.34 295.04zM1159.61 260.54L1219.37 295.04L1219.37 364.04L1159.61 398.54L1099.85 364.04L1099.85 295.04zM1099.85 364.04L1159.61 398.54L1159.61 467.54L1099.85 502.04L1040.1 467.54L1040.1 398.54zM1279.13 53.54L1338.88 88.04L1338.88 157.04L1279.13 191.54L1219.37 157.04L1219.37 88.04zM1219.37 157.04L1279.13 191.54L1279.13 260.54L1219.37 295.04L1159.61 260.54L1159.61 191.54zM1279.13 467.54L1338.88 502.04L1338.88 571.04L1279.13 605.54L1219.37 571.04L1219.37 502.04zM1338.88 -49.96L1398.64 -15.46L1398.64 53.54L1338.88 88.04L1279.13 53.54L1279.13 -15.46zM1338.88 157.04L1398.64 191.54L1398.64 260.54L1338.88 295.04L1279.13 260.54L1279.13 191.54zM1398.64 467.54L1458.4 502.04L1458.4 571.04L1398.64 605.54L1338.88 571.04L1338.88 502.04zM1518.16 260.54L1577.91 295.04L1577.91 364.04L1518.16 398.54L1458.4 364.04L1458.4 295.04z" stroke="rgba(123, 104, 238, 1)" stroke-width="2"></path>
    </g>
    <defs>
        <mask id="SvgjsMask1038">
            <rect width="1440" height="560" fill="#ffffff"></rect>
        </mask>
    </defs>
</svg>