<svg xmlns="http://www.w3.org/2000/svg" width="152" height="50" viewBox="0 0 152 50" fill="none">
<path d="M17.4902 26.7344C17.4902 27.4141 17.4375 28.1641 17.332 28.9844C17.2266 29.793 17.0508 30.6133 16.8047 31.4453C16.5586 32.2656 16.2246 33.0684 15.8027 33.8535C15.3809 34.627 14.8535 35.3125 14.2207 35.9102C13.5996 36.5078 12.8555 36.9883 11.9883 37.3516C11.1211 37.7148 10.1133 37.8965 8.96484 37.8965C7.81641 37.8965 6.80859 37.7266 5.94141 37.3867C5.08594 37.0469 4.34766 36.5957 3.72656 36.0332C3.11719 35.459 2.61328 34.8027 2.21484 34.0645C1.81641 33.3145 1.5 32.5293 1.26562 31.709C1.03125 30.8887 0.867188 30.0625 0.773438 29.2305C0.691406 28.3867 0.650391 27.5898 0.650391 26.8398C0.650391 25.5156 0.826172 24.2207 1.17773 22.9551C1.5293 21.6777 2.0625 20.541 2.77734 19.5449C3.50391 18.5488 4.40625 17.7461 5.48438 17.1367C6.57422 16.5273 7.85156 16.2227 9.31641 16.2227C10.3008 16.2227 11.1855 16.375 11.9707 16.6797C12.7559 16.9727 13.4531 17.377 14.0625 17.8926C14.6719 18.4082 15.1875 19.0117 15.6094 19.7031C16.043 20.3945 16.4004 21.127 16.6816 21.9004C16.9629 22.6738 17.168 23.4766 17.2969 24.3086C17.4258 25.1406 17.4902 25.9492 17.4902 26.7344ZM11.373 27.3145C11.373 27.0449 11.3613 26.7109 11.3379 26.3125C11.3262 25.9023 11.291 25.4746 11.2324 25.0293C11.1738 24.584 11.0918 24.1387 10.9863 23.6934C10.8926 23.248 10.7637 22.8496 10.5996 22.498C10.4355 22.1465 10.2305 21.8594 9.98438 21.6367C9.75 21.4141 9.46875 21.3027 9.14062 21.3027C8.82422 21.3027 8.54883 21.4082 8.31445 21.6191C8.08008 21.8301 7.875 22.1055 7.69922 22.4453C7.53516 22.7852 7.39453 23.1719 7.27734 23.6055C7.17188 24.0273 7.08398 24.4551 7.01367 24.8887C6.95508 25.3105 6.9082 25.7207 6.87305 26.1191C6.84961 26.5059 6.83789 26.834 6.83789 27.1035C6.83789 27.4902 6.86719 27.959 6.92578 28.5098C6.98438 29.0605 7.0957 29.5879 7.25977 30.0918C7.42383 30.5957 7.64648 31.0293 7.92773 31.3926C8.2207 31.7441 8.60156 31.9199 9.07031 31.9199C9.51562 31.9199 9.88477 31.7559 10.1777 31.4277C10.4824 31.0996 10.7227 30.7012 10.8984 30.2324C11.0742 29.752 11.1973 29.248 11.2676 28.7207C11.3379 28.1934 11.373 27.7246 11.373 27.3145ZM18.6152 16.8379C18.8848 16.8613 19.1895 16.8848 19.5293 16.9082C19.8223 16.9316 20.1621 16.9492 20.5488 16.9609C20.9473 16.9727 21.3809 16.9785 21.8496 16.9785C22.5059 16.9785 23.209 16.9609 23.959 16.9258C24.7207 16.8789 25.4707 16.791 26.209 16.6621C26.0684 16.9316 25.9453 17.2949 25.8398 17.752C25.7461 18.1973 25.6641 18.7188 25.5938 19.3164C26.0742 18.2617 26.7129 17.4414 27.5098 16.8555C28.3184 16.2695 29.3379 15.9766 30.5684 15.9766C30.8379 15.9766 31.1777 15.9941 31.5879 16.0293C32.0098 16.0645 32.4492 16.1816 32.9062 16.3809C33.375 16.5801 33.8379 16.8906 34.2949 17.3125C34.7637 17.7227 35.1797 18.3086 35.543 19.0703C35.918 19.832 36.2168 20.793 36.4395 21.9531C36.6738 23.1016 36.791 24.5195 36.791 26.207C36.791 27.6133 36.6855 28.873 36.4746 29.9863C36.2754 31.0879 36 32.0605 35.6484 32.9043C35.3086 33.748 34.9043 34.4688 34.4355 35.0664C33.9785 35.6523 33.4922 36.1328 32.9766 36.5078C32.4727 36.8828 31.9512 37.1523 31.4121 37.3164C30.8848 37.4922 30.375 37.5801 29.8828 37.5801C29.3086 37.5801 28.7754 37.4629 28.2832 37.2285C27.8027 36.9941 27.375 36.6719 27 36.2617C26.625 35.8398 26.3027 35.3418 26.0332 34.7676C25.7637 34.1816 25.5586 33.543 25.418 32.8516C25.4297 33.3906 25.4531 34.0176 25.4883 34.7324C25.5234 35.4473 25.5645 36.1914 25.6113 36.9648C25.6582 37.7266 25.7109 38.4941 25.7695 39.2676C25.8281 40.041 25.8926 40.7559 25.9629 41.4121C26.0332 42.0801 26.1094 42.6602 26.1914 43.1523C26.2852 43.6445 26.3848 43.9961 26.4902 44.207C25.5527 44.043 24.6797 43.9316 23.8711 43.873C23.0625 43.8262 22.3301 43.8027 21.6738 43.8027C21.252 43.8027 20.8711 43.8086 20.5312 43.8203C20.1914 43.832 19.9043 43.8496 19.6699 43.873C19.3887 43.8965 19.1426 43.9199 18.9316 43.9434C19.0488 43.3574 19.1602 42.5898 19.2656 41.6406C19.3711 40.7031 19.459 39.6426 19.5293 38.459C19.6113 37.2871 19.6758 36.0273 19.7227 34.6797C19.7695 33.3203 19.793 31.9316 19.793 30.5137C19.793 29.2129 19.7695 27.918 19.7227 26.6289C19.6875 25.3398 19.623 24.1035 19.5293 22.9199C19.4355 21.7363 19.3125 20.6289 19.1602 19.5977C19.0078 18.5547 18.8262 17.6348 18.6152 16.8379ZM25.8398 25.4863V28.3164C25.8398 28.6328 25.8574 28.9551 25.8926 29.2832C25.9277 29.6113 26.0039 29.9102 26.1211 30.1797C26.25 30.4492 26.4316 30.6719 26.666 30.8477C26.9004 31.0117 27.2168 31.0938 27.6152 31.0938C27.8965 31.0938 28.1367 30.9824 28.3359 30.7598C28.5352 30.5371 28.6992 30.25 28.8281 29.8984C28.957 29.5469 29.0625 29.1543 29.1445 28.7207C29.2266 28.2871 29.2852 27.8594 29.3203 27.4375C29.3555 27.0039 29.3789 26.6055 29.3906 26.2422C29.4023 25.8672 29.4082 25.5742 29.4082 25.3633C29.4082 25.0469 29.3906 24.6602 29.3555 24.2031C29.332 23.7461 29.2676 23.3008 29.1621 22.8672C29.0566 22.4336 28.8926 22.0645 28.6699 21.7598C28.459 21.4551 28.166 21.3027 27.791 21.3027C27.3691 21.3027 27.0293 21.4551 26.7715 21.7598C26.5137 22.0527 26.3145 22.416 26.1738 22.8496C26.0449 23.2715 25.957 23.7285 25.9102 24.2207C25.8633 24.7012 25.8398 25.123 25.8398 25.4863ZM46.4766 36.9297C46.2773 36.918 46.043 36.9004 45.7734 36.877C45.5391 36.8652 45.2637 36.8535 44.9473 36.8418C44.6309 36.8301 44.2676 36.8242 43.8574 36.8242C43.0957 36.8242 42.2168 36.8594 41.2207 36.9297C40.2246 36.9883 39.1465 37.1055 37.9863 37.2812C38.209 36.8359 38.3965 36.2793 38.5488 35.6113C38.7012 34.9316 38.8242 34.2109 38.918 33.4492C39.0234 32.6758 39.0996 31.8965 39.1465 31.1113C39.2051 30.3262 39.2461 29.6055 39.2695 28.9492C39.293 28.293 39.3047 27.7363 39.3047 27.2793C39.3164 26.8223 39.3223 26.5352 39.3223 26.418C39.2988 24.8945 39.2461 23.4707 39.1641 22.1465C39.1289 21.584 39.082 21.0156 39.0234 20.4414C38.9766 19.8672 38.918 19.3281 38.8477 18.8242C38.7773 18.3086 38.6953 17.8516 38.6016 17.4531C38.5195 17.043 38.4199 16.7207 38.3027 16.4863C39.252 16.6504 40.1309 16.7617 40.9395 16.8203C41.748 16.8789 42.4805 16.9082 43.1367 16.9082C43.5586 16.9082 43.9336 16.9023 44.2617 16.8906C44.6016 16.8672 44.8887 16.8438 45.123 16.8203C45.4043 16.7969 45.6504 16.7676 45.8613 16.7324C45.6504 17.7871 45.4746 19.0586 45.334 20.5469C45.2051 22.0352 45.1406 23.6289 45.1406 25.3281C45.1406 26.3008 45.1641 27.2852 45.2109 28.2812C45.2578 29.2773 45.334 30.2734 45.4395 31.2695C45.5449 32.2539 45.6797 33.2266 45.8438 34.1875C46.0195 35.1367 46.2305 36.0508 46.4766 36.9297ZM38.4082 11.793C38.4082 11.2539 38.5078 10.75 38.707 10.2812C38.918 9.80078 39.1992 9.38477 39.5508 9.0332C39.9141 8.66992 40.3359 8.38867 40.8164 8.18945C41.2969 7.97852 41.8066 7.87305 42.3457 7.87305C42.8848 7.87305 43.3887 7.97852 43.8574 8.18945C44.3379 8.38867 44.7539 8.66992 45.1055 9.0332C45.4688 9.38477 45.75 9.80078 45.9492 10.2812C46.1602 10.75 46.2656 11.2539 46.2656 11.793C46.2656 12.332 46.1602 12.8418 45.9492 13.3223C45.75 13.8027 45.4688 14.2246 45.1055 14.5879C44.7539 14.9395 44.3379 15.2207 43.8574 15.4316C43.3887 15.6309 42.8848 15.7305 42.3457 15.7305C41.8066 15.7305 41.2969 15.6309 40.8164 15.4316C40.3359 15.2207 39.9141 14.9395 39.5508 14.5879C39.1992 14.2246 38.918 13.8027 38.707 13.3223C38.5078 12.8418 38.4082 12.332 38.4082 11.793ZM103.764 37.3516C103.4 37.293 103.002 37.252 102.568 37.2285C102.135 37.2168 101.684 37.2109 101.215 37.2109C100.652 37.2109 100.078 37.2227 99.4922 37.2461C98.918 37.2812 98.3555 37.3223 97.8047 37.3691C97.2539 37.416 96.7324 37.4688 96.2402 37.5273C95.748 37.5859 95.3203 37.6387 94.957 37.6855C95.4609 35.9863 95.8477 34.1699 96.1172 32.2363C96.3984 30.3027 96.5391 28.1582 96.5391 25.8027C96.5391 25.627 96.5332 25.3926 96.5215 25.0996C96.5215 24.8066 96.5098 24.4902 96.4863 24.1504C96.4629 23.8105 96.4219 23.4707 96.3633 23.1309C96.3164 22.7793 96.2402 22.4629 96.1348 22.1816C96.041 21.9004 95.918 21.6719 95.7656 21.4961C95.6133 21.3203 95.4258 21.2324 95.2031 21.2324C94.875 21.2324 94.5527 21.3496 94.2363 21.584C93.9316 21.8184 93.6562 22.1289 93.4102 22.5156C93.1758 22.9023 92.9824 23.3477 92.8301 23.8516C92.6895 24.3555 92.6191 24.877 92.6191 25.416C92.6191 26.3887 92.6426 27.3789 92.6895 28.3867C92.7363 29.3828 92.8125 30.373 92.918 31.3574C93.0234 32.3418 93.1582 33.3086 93.3223 34.2578C93.4863 35.1953 93.6914 36.0859 93.9375 36.9297C93.7383 36.918 93.5039 36.9004 93.2344 36.877C93 36.8652 92.7246 36.8535 92.4082 36.8418C92.0918 36.8301 91.7285 36.8242 91.3184 36.8242C90.5566 36.8242 89.6777 36.8594 88.6816 36.9297C87.6855 36.9883 86.6074 37.1055 85.4473 37.2812C85.5879 36.625 85.7109 35.8223 85.8164 34.873C85.9219 33.9238 86.0098 32.8926 86.0801 31.7793C86.1504 30.666 86.2031 29.5059 86.2383 28.2988C86.2852 27.0801 86.3086 25.8789 86.3086 24.6953C86.3086 23.8164 86.2969 22.9551 86.2734 22.1113C86.25 21.2676 86.2148 20.4707 86.168 19.7207C86.1328 18.9707 86.0801 18.2793 86.0098 17.6465C85.9395 17.0137 85.8574 16.4688 85.7637 16.0117C86.7129 16.1758 87.5918 16.293 88.4004 16.3633C89.209 16.4219 89.9414 16.4512 90.5977 16.4512C91.0195 16.4512 91.3945 16.4453 91.7227 16.4336C92.0625 16.4102 92.3496 16.3867 92.584 16.3633C92.8652 16.3281 93.1113 16.293 93.3223 16.2578C93.252 16.6211 93.1816 17.0078 93.1113 17.418C93.0527 17.8281 92.9941 18.2734 92.9355 18.7539C93.3223 18.2617 93.7324 17.834 94.166 17.4707C94.5996 17.0957 95.0332 16.7852 95.4668 16.5391C95.9121 16.293 96.3516 16.1113 96.7852 15.9941C97.2188 15.8652 97.6289 15.8008 98.0156 15.8008C98.8594 15.8008 99.5859 15.9766 100.195 16.3281C100.816 16.668 101.326 17.207 101.725 17.9453C102.135 18.6836 102.439 19.627 102.639 20.7754C102.838 21.9238 102.938 23.3008 102.938 24.9062C102.938 26.0078 102.938 27.127 102.938 28.2637C102.949 29.4004 102.979 30.5137 103.025 31.6035C103.072 32.6934 103.154 33.7305 103.271 34.7148C103.389 35.6875 103.553 36.5664 103.764 37.3516ZM113.379 36.9297C113.18 36.918 112.945 36.9004 112.676 36.877C112.441 36.8652 112.166 36.8535 111.85 36.8418C111.533 36.8301 111.17 36.8242 110.76 36.8242C109.998 36.8242 109.119 36.8594 108.123 36.9297C107.127 36.9883 106.049 37.1055 104.889 37.2812C105.111 36.8359 105.299 36.2793 105.451 35.6113C105.604 34.9316 105.727 34.2109 105.82 33.4492C105.926 32.6758 106.002 31.8965 106.049 31.1113C106.107 30.3262 106.148 29.6055 106.172 28.9492C106.195 28.293 106.207 27.7363 106.207 27.2793C106.219 26.8223 106.225 26.5352 106.225 26.418C106.201 24.8945 106.148 23.4707 106.066 22.1465C106.031 21.584 105.984 21.0156 105.926 20.4414C105.879 19.8672 105.82 19.3281 105.75 18.8242C105.68 18.3086 105.598 17.8516 105.504 17.4531C105.422 17.043 105.322 16.7207 105.205 16.4863C106.154 16.6504 107.033 16.7617 107.842 16.8203C108.65 16.8789 109.383 16.9082 110.039 16.9082C110.461 16.9082 110.836 16.9023 111.164 16.8906C111.504 16.8672 111.791 16.8438 112.025 16.8203C112.307 16.7969 112.553 16.7676 112.764 16.7324C112.553 17.7871 112.377 19.0586 112.236 20.5469C112.107 22.0352 112.043 23.6289 112.043 25.3281C112.043 26.3008 112.066 27.2852 112.113 28.2812C112.16 29.2773 112.236 30.2734 112.342 31.2695C112.447 32.2539 112.582 33.2266 112.746 34.1875C112.922 35.1367 113.133 36.0508 113.379 36.9297ZM105.311 11.793C105.311 11.2539 105.41 10.75 105.609 10.2812C105.82 9.80078 106.102 9.38477 106.453 9.0332C106.816 8.66992 107.238 8.38867 107.719 8.18945C108.199 7.97852 108.709 7.87305 109.248 7.87305C109.787 7.87305 110.291 7.97852 110.76 8.18945C111.24 8.38867 111.656 8.66992 112.008 9.0332C112.371 9.38477 112.652 9.80078 112.852 10.2812C113.062 10.75 113.168 11.2539 113.168 11.793C113.168 12.332 113.062 12.8418 112.852 13.3223C112.652 13.8027 112.371 14.2246 112.008 14.5879C111.656 14.9395 111.24 15.2207 110.76 15.4316C110.291 15.6309 109.787 15.7305 109.248 15.7305C108.709 15.7305 108.199 15.6309 107.719 15.4316C107.238 15.2207 106.816 14.9395 106.453 14.5879C106.102 14.2246 105.82 13.8027 105.609 13.3223C105.41 12.8418 105.311 12.332 105.311 11.793ZM131.326 26.7344C131.326 27.4141 131.273 28.1641 131.168 28.9844C131.062 29.793 130.887 30.6133 130.641 31.4453C130.395 32.2656 130.061 33.0684 129.639 33.8535C129.217 34.627 128.689 35.3125 128.057 35.9102C127.436 36.5078 126.691 36.9883 125.824 37.3516C124.957 37.7148 123.949 37.8965 122.801 37.8965C121.652 37.8965 120.645 37.7266 119.777 37.3867C118.922 37.0469 118.184 36.5957 117.562 36.0332C116.953 35.459 116.449 34.8027 116.051 34.0645C115.652 33.3145 115.336 32.5293 115.102 31.709C114.867 30.8887 114.703 30.0625 114.609 29.2305C114.527 28.3867 114.486 27.5898 114.486 26.8398C114.486 25.5156 114.662 24.2207 115.014 22.9551C115.365 21.6777 115.898 20.541 116.613 19.5449C117.34 18.5488 118.242 17.7461 119.32 17.1367C120.41 16.5273 121.688 16.2227 123.152 16.2227C124.137 16.2227 125.021 16.375 125.807 16.6797C126.592 16.9727 127.289 17.377 127.898 17.8926C128.508 18.4082 129.023 19.0117 129.445 19.7031C129.879 20.3945 130.236 21.127 130.518 21.9004C130.799 22.6738 131.004 23.4766 131.133 24.3086C131.262 25.1406 131.326 25.9492 131.326 26.7344ZM125.209 27.3145C125.209 27.0449 125.197 26.7109 125.174 26.3125C125.162 25.9023 125.127 25.4746 125.068 25.0293C125.01 24.584 124.928 24.1387 124.822 23.6934C124.729 23.248 124.6 22.8496 124.436 22.498C124.271 22.1465 124.066 21.8594 123.82 21.6367C123.586 21.4141 123.305 21.3027 122.977 21.3027C122.66 21.3027 122.385 21.4082 122.15 21.6191C121.916 21.8301 121.711 22.1055 121.535 22.4453C121.371 22.7852 121.23 23.1719 121.113 23.6055C121.008 24.0273 120.92 24.4551 120.85 24.8887C120.791 25.3105 120.744 25.7207 120.709 26.1191C120.686 26.5059 120.674 26.834 120.674 27.1035C120.674 27.4902 120.703 27.959 120.762 28.5098C120.82 29.0605 120.932 29.5879 121.096 30.0918C121.26 30.5957 121.482 31.0293 121.764 31.3926C122.057 31.7441 122.438 31.9199 122.906 31.9199C123.352 31.9199 123.721 31.7559 124.014 31.4277C124.318 31.0996 124.559 30.7012 124.734 30.2324C124.91 29.752 125.033 29.248 125.104 28.7207C125.174 28.1934 125.209 27.7246 125.209 27.3145ZM150.943 37.3516C150.58 37.293 150.182 37.252 149.748 37.2285C149.314 37.2168 148.863 37.2109 148.395 37.2109C147.832 37.2109 147.258 37.2227 146.672 37.2461C146.098 37.2812 145.535 37.3223 144.984 37.3691C144.434 37.416 143.912 37.4688 143.42 37.5273C142.928 37.5859 142.5 37.6387 142.137 37.6855C142.641 35.9863 143.027 34.1699 143.297 32.2363C143.578 30.3027 143.719 28.1582 143.719 25.8027C143.719 25.627 143.713 25.3926 143.701 25.0996C143.701 24.8066 143.689 24.4902 143.666 24.1504C143.643 23.8105 143.602 23.4707 143.543 23.1309C143.496 22.7793 143.42 22.4629 143.314 22.1816C143.221 21.9004 143.098 21.6719 142.945 21.4961C142.793 21.3203 142.605 21.2324 142.383 21.2324C142.055 21.2324 141.732 21.3496 141.416 21.584C141.111 21.8184 140.836 22.1289 140.59 22.5156C140.355 22.9023 140.162 23.3477 140.01 23.8516C139.869 24.3555 139.799 24.877 139.799 25.416C139.799 26.3887 139.822 27.3789 139.869 28.3867C139.916 29.3828 139.992 30.373 140.098 31.3574C140.203 32.3418 140.338 33.3086 140.502 34.2578C140.666 35.1953 140.871 36.0859 141.117 36.9297C140.918 36.918 140.684 36.9004 140.414 36.877C140.18 36.8652 139.904 36.8535 139.588 36.8418C139.271 36.8301 138.908 36.8242 138.498 36.8242C137.736 36.8242 136.857 36.8594 135.861 36.9297C134.865 36.9883 133.787 37.1055 132.627 37.2812C132.768 36.625 132.891 35.8223 132.996 34.873C133.102 33.9238 133.189 32.8926 133.26 31.7793C133.33 30.666 133.383 29.5059 133.418 28.2988C133.465 27.0801 133.488 25.8789 133.488 24.6953C133.488 23.8164 133.477 22.9551 133.453 22.1113C133.43 21.2676 133.395 20.4707 133.348 19.7207C133.312 18.9707 133.26 18.2793 133.189 17.6465C133.119 17.0137 133.037 16.4688 132.943 16.0117C133.893 16.1758 134.771 16.293 135.58 16.3633C136.389 16.4219 137.121 16.4512 137.777 16.4512C138.199 16.4512 138.574 16.4453 138.902 16.4336C139.242 16.4102 139.529 16.3867 139.764 16.3633C140.045 16.3281 140.291 16.293 140.502 16.2578C140.432 16.6211 140.361 17.0078 140.291 17.418C140.232 17.8281 140.174 18.2734 140.115 18.7539C140.502 18.2617 140.912 17.834 141.346 17.4707C141.779 17.0957 142.213 16.7852 142.646 16.5391C143.092 16.293 143.531 16.1113 143.965 15.9941C144.398 15.8652 144.809 15.8008 145.195 15.8008C146.039 15.8008 146.766 15.9766 147.375 16.3281C147.996 16.668 148.506 17.207 148.904 17.9453C149.314 18.6836 149.619 19.627 149.818 20.7754C150.018 21.9238 150.117 23.3008 150.117 24.9062C150.117 26.0078 150.117 27.127 150.117 28.2637C150.129 29.4004 150.158 30.5137 150.205 31.6035C150.252 32.6934 150.334 33.7305 150.451 34.7148C150.568 35.6875 150.732 36.5664 150.943 37.3516Z" fill="#7B68EE"/>
<path d="M60.925 7.07249C60.925 5.40624 62.9975 4.59624 64.1163 5.87374L65.5938 7.56624L67.0712 5.87499C68.19 4.59624 70.2625 5.40624 70.2625 7.07249V9.35999C70.2625 10.2825 70.8125 11.1162 71.6825 11.5C77.2625 13.865 81.1875 19.4062 81.1875 25.86C81.1875 33.455 75.7513 39.7925 68.55 41.1725V41.185C68.55 42.0475 67.85 42.7475 66.9875 42.7475H64.2875C63.425 42.7475 62.725 42.0475 62.725 41.185V41.1787C55.5725 39.79 50 33.2975 50 25.8475C50 19.39 53.9287 13.8612 59.51 11.4975C59.9274 11.32 60.2838 11.0242 60.5353 10.6466C60.7867 10.269 60.9222 9.82612 60.925 9.37249V7.07249ZM63.425 8.88374V9.37124C63.4224 10.3148 63.1432 11.2368 62.622 12.0233C62.1008 12.8098 61.3604 13.4262 60.4925 13.7962L60.4875 13.7987C60.2575 13.895 60.0325 13.9987 59.81 14.1087C57.36 16.715 55.9125 20.785 55.9125 25.1587C55.9125 31.7962 59.2188 37.35 63.6038 38.665C61.9213 36.1475 61.025 30.5225 61.025 25.1475C61.025 20.4475 61.65 16.135 62.7375 13.3475L63.675 13.71C62.65 16.3475 62.0375 20.6225 62.0375 25.1475C62.0375 28.935 62.45 32.4975 63.2125 35.1725C63.9025 37.6087 64.7125 38.6975 65.325 38.95C65.5087 38.9537 65.6938 38.9537 65.8763 38.95C66.4875 38.6962 67.2975 37.6075 67.9875 35.1725C68.7375 32.4975 69.1625 28.9475 69.1625 25.1475C69.1625 20.635 68.55 16.36 67.525 13.71L68.4625 13.3475C69.55 16.1475 70.175 20.4475 70.175 25.1475C70.1662 30.5225 69.275 36.1487 67.595 38.665C71.98 37.3525 75.2875 31.7975 75.2875 25.16C75.2875 20.7912 73.8438 16.7275 71.4013 14.12C71.1712 14.006 70.9377 13.8989 70.7013 13.7987L70.6862 13.7925C69.8202 13.4187 69.0821 12.8001 68.5627 12.0127C68.0433 11.2253 67.7652 10.3033 67.7625 9.35999V8.88374L66.9688 9.79124C66.7994 9.98658 66.5903 10.1436 66.3555 10.2518C66.1207 10.36 65.8656 10.417 65.607 10.4189C65.3485 10.4208 65.0925 10.3676 64.8562 10.2628C64.6198 10.158 64.4085 10.0041 64.2362 9.81124L64.2288 9.8025L63.425 8.88374ZM57.0875 15.9C55.6474 17.1264 54.4913 18.6513 53.6991 20.3689C52.907 22.0866 52.4978 23.956 52.5 25.8475C52.5 30.5937 55.225 34.8975 59.1687 37.1975C58.7125 36.7325 58.2812 36.215 57.875 35.6475C55.8625 32.835 54.7625 29.11 54.7625 25.16C54.7625 21.75 55.6 18.5012 57.0875 15.9ZM71.8587 37.3587C73.9256 36.2327 75.6507 34.5703 76.8524 32.5465C78.0541 30.5227 78.6881 28.2124 78.6875 25.8587C78.6875 21.8887 76.9175 18.3275 74.1263 15.925C75.6063 18.5225 76.4375 21.76 76.4375 25.1587C76.4375 29.1087 75.3375 32.8337 73.325 35.6462C72.8867 36.2584 72.3961 36.8314 71.8587 37.3587Z" fill="#7B68EE"/>
</svg>